<svg xmlns="http://www.w3.org/2000/svg" width="20" height="19" viewBox="0 0 20 19">
    <g fill="#FC4C02" fill-rule="nonzero">
        <path d="M19.917 2.68c-.084-.084-.167-.167-.334-.167H3.75L3.333.346c0-.166-.25-.333-.416-.333h-2.5C.167.013 0 .18 0 .43c0 .25.167.416.417.416h2.166l2 10.167c.25 1.333 1.5 2.333 2.834 2.333H17c.25 0 .417-.166.417-.416 0-.25-.167-.417-.417-.417H7.5c-.667 0-1.333-.333-1.667-.917L18 9.93a.358.358 0 0 0 .333-.334L20 2.93s0-.167-.083-.25zm-2.334 6.5L5.417 10.763l-1.5-7.5H19L17.583 9.18zM7.083 14.18A2.063 2.063 0 0 0 5 16.263c0 1.167.917 2.083 2.083 2.083a2.063 2.063 0 0 0 2.084-2.083 2.063 2.063 0 0 0-2.084-2.083zm0 3.333c-.666 0-1.25-.583-1.25-1.25s.584-1.25 1.25-1.25c.667 0 1.25.583 1.25 1.25s-.583 1.25-1.25 1.25zM15.417 14.18a2.063 2.063 0 0 0-2.084 2.083c0 1.167.917 2.083 2.084 2.083a2.063 2.063 0 0 0 2.083-2.083 2.063 2.063 0 0 0-2.083-2.083zm0 3.333c-.667 0-1.25-.583-1.25-1.25s.583-1.25 1.25-1.25c.666 0 1.25.583 1.25 1.25s-.584 1.25-1.25 1.25z"/>
    </g>
</svg>
